<svg width="24" height="25" viewBox="0 0 24 25" fill="none" xmlns="http://www.w3.org/2000/svg">
<path d="M19.3333 0C16.76 0 14.6667 2.17544 14.6667 4.8497V6.92814H9.33333V4.8497C9.33333 2.17544 7.24 0 4.66667 0C2.09333 0 0 2.17544 0 4.8497C0 7.52396 2.09333 9.6994 4.66667 9.6994H6.66667V15.2419H4.66667C2.09333 15.2419 0 17.4174 0 20.0916C0 22.7659 2.09333 24.9413 4.66667 24.9413C7.24 24.9413 9.33333 22.7659 9.33333 20.0916V18.0132H14.6667V20.0916C14.6667 22.7659 16.76 24.9413 19.3333 24.9413C21.9067 24.9413 24 22.7659 24 20.0916C24 17.4174 21.9067 15.2419 19.3333 15.2419H17.3333V9.6994H19.3333C21.9067 9.6994 24 7.52396 24 4.8497C24 2.17544 21.9067 0 19.3333 0ZM17.3333 6.92814V4.8497C17.3333 3.69963 18.2267 2.77126 19.3333 2.77126C20.44 2.77126 21.3333 3.69963 21.3333 4.8497C21.3333 5.99977 20.44 6.92814 19.3333 6.92814H17.3333ZM4.66667 6.92814C3.56 6.92814 2.66667 5.99977 2.66667 4.8497C2.66667 3.69963 3.56 2.77126 4.66667 2.77126C5.77333 2.77126 6.66667 3.69963 6.66667 4.8497V6.92814H4.66667ZM9.33333 15.2419V9.6994H14.6667V15.2419H9.33333ZM19.3333 22.1701C18.2267 22.1701 17.3333 21.2417 17.3333 20.0916V18.0132H19.3333C20.44 18.0132 21.3333 18.9415 21.3333 20.0916C21.3333 21.2417 20.44 22.1701 19.3333 22.1701ZM4.66667 22.1701C3.56 22.1701 2.66667 21.2417 2.66667 20.0916C2.66667 18.9415 3.56 18.0132 4.66667 18.0132H6.66667V20.0916C6.66667 21.2417 5.77333 22.1701 4.66667 22.1701Z" fill="black"/>
</svg>
